<svg width="182" height="36" viewBox="0 0 182 36" fill="none" xmlns="http://www.w3.org/2000/svg">
<path d="M50.04 25C49.9067 25 49.7933 24.9533 49.7 24.86C49.6067 24.7667 49.56 24.6533 49.56 24.52V11.5C49.56 11.3533 49.6067 11.2333 49.7 11.14C49.7933 11.0467 49.9067 11 50.04 11H55.84C56.92 11 57.8 11.1667 58.48 11.5C59.16 11.82 59.66 12.2667 59.98 12.84C60.3133 13.4133 60.48 14.08 60.48 14.84C60.48 15.3467 60.3867 15.7933 60.2 16.18C60.0267 16.5533 59.8067 16.86 59.54 17.1C59.2867 17.34 59.0333 17.5267 58.78 17.66C59.3 17.9 59.76 18.3 60.16 18.86C60.56 19.42 60.76 20.0867 60.76 20.86C60.76 21.66 60.58 22.3733 60.22 23C59.86 23.6267 59.3267 24.12 58.62 24.48C57.9133 24.8267 57.04 25 56 25H50.04ZM52.34 22.88H55.68C56.4 22.88 56.9467 22.6867 57.32 22.3C57.6933 21.9 57.88 21.42 57.88 20.86C57.88 20.2733 57.6867 19.7867 57.3 19.4C56.9267 19.0133 56.3867 18.82 55.68 18.82H52.34V22.88ZM52.34 16.74H55.48C56.1867 16.74 56.7133 16.5733 57.06 16.24C57.42 15.8933 57.6 15.4467 57.6 14.9C57.6 14.34 57.42 13.9067 57.06 13.6C56.7133 13.28 56.1867 13.12 55.48 13.12H52.34V16.74ZM63.4909 25C63.3709 25 63.2643 24.9533 63.1709 24.86C63.0776 24.7667 63.0309 24.66 63.0309 24.54V15.08C63.0309 14.9467 63.0776 14.8333 63.1709 14.74C63.2643 14.6467 63.3776 14.6 63.5109 14.6H65.1709C65.3176 14.6 65.4309 14.6467 65.5109 14.74C65.6043 14.8333 65.6509 14.9467 65.6509 15.08V22.98L64.9509 22.48L70.4509 14.92C70.5176 14.8267 70.5909 14.7533 70.6709 14.7C70.7509 14.6333 70.8576 14.6 70.9909 14.6H72.5109C72.6309 14.6 72.7376 14.6467 72.8309 14.74C72.9243 14.82 72.9709 14.92 72.9709 15.04V24.52C72.9709 24.6533 72.9243 24.7667 72.8309 24.86C72.7376 24.9533 72.6243 25 72.4909 25H70.8309C70.6843 25 70.5643 24.9533 70.4709 24.86C70.3909 24.7667 70.3509 24.6533 70.3509 24.52V16.98L71.0909 17.08L65.5509 24.68C65.4976 24.76 65.4243 24.8333 65.3309 24.9C65.2509 24.9667 65.1443 25 65.0109 25H63.4909ZM75.0919 27.2C74.9585 27.2 74.8452 27.1533 74.7519 27.06C74.6585 26.9667 74.6119 26.8533 74.6119 26.72V23.36C74.6119 23.2267 74.6585 23.1133 74.7519 23.02C74.8452 22.9267 74.9585 22.88 75.0919 22.88H75.2519C75.5985 22.88 75.8785 22.7 76.0919 22.34C76.3185 21.9667 76.4852 21.4067 76.5919 20.66C76.6985 19.9 76.7519 18.94 76.7519 17.78V15.08C76.7519 14.9467 76.7985 14.8333 76.8919 14.74C76.9852 14.6467 77.0985 14.6 77.2319 14.6H84.3519C84.4985 14.6 84.6119 14.6467 84.6919 14.74C84.7852 14.8333 84.8319 14.9467 84.8319 15.08V22.86H85.7319C85.8785 22.86 85.9919 22.9067 86.0719 23C86.1652 23.0933 86.2119 23.2067 86.2119 23.34V26.72C86.2119 26.8533 86.1652 26.9667 86.0719 27.06C85.9919 27.1533 85.8785 27.2 85.7319 27.2H84.0719C83.9385 27.2 83.8252 27.1533 83.7319 27.06C83.6385 26.9667 83.5919 26.8533 83.5919 26.72V25H77.2319V26.72C77.2319 26.8533 77.1852 26.9667 77.0919 27.06C76.9985 27.1533 76.8852 27.2 76.7519 27.2H75.0919ZM78.3319 22.88L82.2119 22.86V16.72H79.2719V18.06C79.2719 19.26 79.1919 20.2533 79.0319 21.04C78.8719 21.8267 78.6385 22.44 78.3319 22.88ZM92.5305 25.2C91.0505 25.2 89.8771 24.7733 89.0105 23.92C88.1438 23.0667 87.6771 21.8533 87.6105 20.28C87.5971 20.1467 87.5905 19.98 87.5905 19.78C87.5905 19.5667 87.5971 19.4 87.6105 19.28C87.6638 18.28 87.8905 17.4133 88.2905 16.68C88.7038 15.9467 89.2705 15.3867 89.9905 15C90.7105 14.6 91.5571 14.4 92.5305 14.4C93.6105 14.4 94.5171 14.6267 95.2505 15.08C95.9838 15.52 96.5371 16.14 96.9105 16.94C97.2838 17.7267 97.4705 18.64 97.4705 19.68V20.1C97.4705 20.2333 97.4238 20.3467 97.3305 20.44C97.2371 20.5333 97.1171 20.58 96.9705 20.58H90.3305C90.3305 20.58 90.3305 20.6 90.3305 20.64C90.3305 20.68 90.3305 20.7133 90.3305 20.74C90.3438 21.2067 90.4305 21.64 90.5905 22.04C90.7638 22.4267 91.0105 22.74 91.3305 22.98C91.6638 23.22 92.0571 23.34 92.5105 23.34C92.8838 23.34 93.1971 23.2867 93.4505 23.18C93.7038 23.06 93.9105 22.9267 94.0705 22.78C94.2305 22.6333 94.3438 22.5133 94.4105 22.42C94.5305 22.26 94.6238 22.1667 94.6905 22.14C94.7705 22.1 94.8838 22.08 95.0305 22.08H96.7505C96.8838 22.08 96.9905 22.12 97.0705 22.2C97.1638 22.28 97.2038 22.38 97.1905 22.5C97.1771 22.7133 97.0638 22.9733 96.8505 23.28C96.6505 23.5867 96.3571 23.8867 95.9705 24.18C95.5838 24.4733 95.0971 24.72 94.5105 24.92C93.9371 25.1067 93.2771 25.2 92.5305 25.2ZM90.3305 18.9H94.7505V18.84C94.7505 18.32 94.6638 17.8667 94.4905 17.48C94.3171 17.0933 94.0638 16.7867 93.7305 16.56C93.3971 16.3333 92.9971 16.22 92.5305 16.22C92.0638 16.22 91.6638 16.3333 91.3305 16.56C90.9971 16.7867 90.7438 17.0933 90.5705 17.48C90.4105 17.8667 90.3305 18.32 90.3305 18.84V18.9ZM104.193 25.2C103.127 25.2 102.227 25.0133 101.493 24.64C100.773 24.2667 100.22 23.74 99.8334 23.06C99.4601 22.38 99.2468 21.5867 99.1934 20.68C99.1801 20.44 99.1734 20.1467 99.1734 19.8C99.1734 19.4533 99.1801 19.16 99.1934 18.92C99.2468 18 99.4668 17.2067 99.8534 16.54C100.253 15.86 100.813 15.3333 101.533 14.96C102.267 14.5867 103.153 14.4 104.193 14.4C105.233 14.4 106.113 14.5867 106.833 14.96C107.567 15.3333 108.127 15.86 108.513 16.54C108.913 17.2067 109.14 18 109.193 18.92C109.207 19.16 109.213 19.4533 109.213 19.8C109.213 20.1467 109.207 20.44 109.193 20.68C109.14 21.5867 108.92 22.38 108.533 23.06C108.16 23.74 107.607 24.2667 106.873 24.64C106.153 25.0133 105.26 25.2 104.193 25.2ZM104.193 23.22C104.9 23.22 105.447 23 105.833 22.56C106.22 22.1067 106.433 21.4467 106.473 20.58C106.487 20.38 106.493 20.12 106.493 19.8C106.493 19.48 106.487 19.22 106.473 19.02C106.433 18.1667 106.22 17.5133 105.833 17.06C105.447 16.6067 104.9 16.38 104.193 16.38C103.487 16.38 102.94 16.6067 102.553 17.06C102.167 17.5133 101.953 18.1667 101.913 19.02C101.9 19.22 101.893 19.48 101.893 19.8C101.893 20.12 101.9 20.38 101.913 20.58C101.953 21.4467 102.167 22.1067 102.553 22.56C102.94 23 103.487 23.22 104.193 23.22ZM115.929 25.2C114.969 25.2 114.123 25.02 113.389 24.66C112.669 24.3 112.103 23.78 111.689 23.1C111.289 22.4067 111.069 21.5733 111.029 20.6C111.016 20.4 111.009 20.14 111.009 19.82C111.009 19.4867 111.016 19.2133 111.029 19C111.069 18.0267 111.289 17.2 111.689 16.52C112.103 15.8267 112.669 15.3 113.389 14.94C114.123 14.58 114.969 14.4 115.929 14.4C116.783 14.4 117.509 14.52 118.109 14.76C118.709 15 119.203 15.3 119.589 15.66C119.976 16.02 120.263 16.4 120.449 16.8C120.649 17.1867 120.756 17.54 120.769 17.86C120.783 18.0067 120.736 18.1267 120.629 18.22C120.536 18.3 120.423 18.34 120.289 18.34H118.529C118.396 18.34 118.289 18.3067 118.209 18.24C118.143 18.1733 118.076 18.0733 118.009 17.94C117.809 17.4067 117.543 17.0333 117.209 16.82C116.889 16.5933 116.476 16.48 115.969 16.48C115.303 16.48 114.769 16.6933 114.369 17.12C113.983 17.5333 113.776 18.1933 113.749 19.1C113.723 19.6067 113.723 20.0733 113.749 20.5C113.776 21.42 113.983 22.0867 114.369 22.5C114.769 22.9133 115.303 23.12 115.969 23.12C116.489 23.12 116.909 23.0133 117.229 22.8C117.549 22.5733 117.809 22.1933 118.009 21.66C118.076 21.5267 118.143 21.4267 118.209 21.36C118.289 21.2933 118.396 21.26 118.529 21.26H120.289C120.423 21.26 120.536 21.3067 120.629 21.4C120.736 21.48 120.783 21.5933 120.769 21.74C120.756 21.98 120.689 22.2533 120.569 22.56C120.463 22.8533 120.283 23.16 120.029 23.48C119.789 23.7867 119.483 24.0733 119.109 24.34C118.736 24.5933 118.283 24.8 117.749 24.96C117.229 25.12 116.623 25.2 115.929 25.2ZM127.335 25.2C125.855 25.2 124.682 24.7733 123.815 23.92C122.948 23.0667 122.482 21.8533 122.415 20.28C122.402 20.1467 122.395 19.98 122.395 19.78C122.395 19.5667 122.402 19.4 122.415 19.28C122.468 18.28 122.695 17.4133 123.095 16.68C123.508 15.9467 124.075 15.3867 124.795 15C125.515 14.6 126.362 14.4 127.335 14.4C128.415 14.4 129.322 14.6267 130.055 15.08C130.788 15.52 131.342 16.14 131.715 16.94C132.088 17.7267 132.275 18.64 132.275 19.68V20.1C132.275 20.2333 132.228 20.3467 132.135 20.44C132.042 20.5333 131.922 20.58 131.775 20.58H125.135C125.135 20.58 125.135 20.6 125.135 20.64C125.135 20.68 125.135 20.7133 125.135 20.74C125.148 21.2067 125.235 21.64 125.395 22.04C125.568 22.4267 125.815 22.74 126.135 22.98C126.468 23.22 126.862 23.34 127.315 23.34C127.688 23.34 128.002 23.2867 128.255 23.18C128.508 23.06 128.715 22.9267 128.875 22.78C129.035 22.6333 129.148 22.5133 129.215 22.42C129.335 22.26 129.428 22.1667 129.495 22.14C129.575 22.1 129.688 22.08 129.835 22.08H131.555C131.688 22.08 131.795 22.12 131.875 22.2C131.968 22.28 132.008 22.38 131.995 22.5C131.982 22.7133 131.868 22.9733 131.655 23.28C131.455 23.5867 131.162 23.8867 130.775 24.18C130.388 24.4733 129.902 24.72 129.315 24.92C128.742 25.1067 128.082 25.2 127.335 25.2ZM125.135 18.9H129.555V18.84C129.555 18.32 129.468 17.8667 129.295 17.48C129.122 17.0933 128.868 16.7867 128.535 16.56C128.202 16.3333 127.802 16.22 127.335 16.22C126.868 16.22 126.468 16.3333 126.135 16.56C125.802 16.7867 125.548 17.0933 125.375 17.48C125.215 17.8667 125.135 18.32 125.135 18.84V18.9ZM134.898 28.8C134.765 28.8 134.651 28.7533 134.558 28.66C134.465 28.5667 134.418 28.4533 134.418 28.32V15.08C134.418 14.9467 134.465 14.8333 134.558 14.74C134.651 14.6467 134.765 14.6 134.898 14.6H136.478C136.625 14.6 136.738 14.6467 136.818 14.74C136.911 14.8333 136.958 14.9467 136.958 15.08V15.88C137.278 15.4533 137.698 15.1 138.218 14.82C138.738 14.54 139.385 14.4 140.158 14.4C140.865 14.4 141.478 14.5133 141.998 14.74C142.518 14.9667 142.951 15.2933 143.298 15.72C143.645 16.1333 143.911 16.6267 144.098 17.2C144.285 17.7733 144.391 18.4067 144.418 19.1C144.431 19.3267 144.438 19.56 144.438 19.8C144.438 20.04 144.431 20.28 144.418 20.52C144.405 21.1867 144.305 21.8067 144.118 22.38C143.931 22.94 143.658 23.4333 143.298 23.86C142.951 24.2733 142.518 24.6 141.998 24.84C141.478 25.08 140.865 25.2 140.158 25.2C139.438 25.2 138.825 25.0733 138.318 24.82C137.811 24.5533 137.398 24.2067 137.078 23.78V28.32C137.078 28.4533 137.031 28.5667 136.938 28.66C136.858 28.7533 136.745 28.8 136.598 28.8H134.898ZM139.418 23.06C139.991 23.06 140.438 22.94 140.758 22.7C141.078 22.4467 141.305 22.12 141.438 21.72C141.585 21.32 141.671 20.88 141.698 20.4C141.725 20 141.725 19.6 141.698 19.2C141.671 18.72 141.585 18.28 141.438 17.88C141.305 17.48 141.078 17.16 140.758 16.92C140.438 16.6667 139.991 16.54 139.418 16.54C138.871 16.54 138.425 16.6667 138.078 16.92C137.745 17.1733 137.498 17.5 137.338 17.9C137.191 18.2867 137.105 18.6867 137.078 19.1C137.065 19.34 137.058 19.5933 137.058 19.86C137.058 20.1267 137.065 20.3867 137.078 20.64C137.091 21.04 137.185 21.4267 137.358 21.8C137.531 22.16 137.785 22.46 138.118 22.7C138.451 22.94 138.885 23.06 139.418 23.06ZM147.163 25C147.03 25 146.917 24.9533 146.823 24.86C146.73 24.7667 146.683 24.6533 146.683 24.52V15.08C146.683 14.9467 146.73 14.8333 146.823 14.74C146.917 14.6467 147.03 14.6 147.163 14.6H151.603C153.017 14.6 154.063 14.86 154.743 15.38C155.423 15.9 155.763 16.6 155.763 17.48C155.763 18.04 155.657 18.4733 155.443 18.78C155.23 19.0867 154.937 19.3533 154.563 19.58C155.03 19.7933 155.39 20.12 155.643 20.56C155.91 20.9867 156.043 21.46 156.043 21.98C156.043 22.94 155.683 23.6867 154.963 24.22C154.257 24.74 153.21 25 151.823 25H147.163ZM149.243 23.2H151.643C152.177 23.2 152.603 23.1 152.923 22.9C153.243 22.7 153.403 22.3867 153.403 21.96C153.403 21.52 153.257 21.2 152.963 21C152.67 20.8 152.23 20.7 151.643 20.7H149.243V23.2ZM149.243 18.84H151.563C152.097 18.84 152.517 18.7333 152.823 18.52C153.13 18.2933 153.283 17.9667 153.283 17.54C153.283 17.1133 153.123 16.82 152.803 16.66C152.497 16.4867 152.083 16.4 151.563 16.4H149.243V18.84ZM158.803 25C158.683 25 158.577 24.9533 158.483 24.86C158.39 24.7667 158.343 24.66 158.343 24.54V15.08C158.343 14.9467 158.39 14.8333 158.483 14.74C158.577 14.6467 158.69 14.6 158.823 14.6H160.483C160.63 14.6 160.743 14.6467 160.823 14.74C160.917 14.8333 160.963 14.9467 160.963 15.08V22.98L160.263 22.48L165.763 14.92C165.83 14.8267 165.903 14.7533 165.983 14.7C166.063 14.6333 166.17 14.6 166.303 14.6H167.823C167.943 14.6 168.05 14.6467 168.143 14.74C168.237 14.82 168.283 14.92 168.283 15.04V24.52C168.283 24.6533 168.237 24.7667 168.143 24.86C168.05 24.9533 167.937 25 167.803 25H166.143C165.997 25 165.877 24.9533 165.783 24.86C165.703 24.7667 165.663 24.6533 165.663 24.52V16.98L166.403 17.08L160.863 24.68C160.81 24.76 160.737 24.8333 160.643 24.9C160.563 24.9667 160.457 25 160.323 25H158.803ZM175.304 25.2C174.344 25.2 173.498 25.02 172.764 24.66C172.044 24.3 171.478 23.78 171.064 23.1C170.664 22.4067 170.444 21.5733 170.404 20.6C170.391 20.4 170.384 20.14 170.384 19.82C170.384 19.4867 170.391 19.2133 170.404 19C170.444 18.0267 170.664 17.2 171.064 16.52C171.478 15.8267 172.044 15.3 172.764 14.94C173.498 14.58 174.344 14.4 175.304 14.4C176.158 14.4 176.884 14.52 177.484 14.76C178.084 15 178.578 15.3 178.964 15.66C179.351 16.02 179.638 16.4 179.824 16.8C180.024 17.1867 180.131 17.54 180.144 17.86C180.158 18.0067 180.111 18.1267 180.004 18.22C179.911 18.3 179.798 18.34 179.664 18.34H177.904C177.771 18.34 177.664 18.3067 177.584 18.24C177.518 18.1733 177.451 18.0733 177.384 17.94C177.184 17.4067 176.918 17.0333 176.584 16.82C176.264 16.5933 175.851 16.48 175.344 16.48C174.678 16.48 174.144 16.6933 173.744 17.12C173.358 17.5333 173.151 18.1933 173.124 19.1C173.098 19.6067 173.098 20.0733 173.124 20.5C173.151 21.42 173.358 22.0867 173.744 22.5C174.144 22.9133 174.678 23.12 175.344 23.12C175.864 23.12 176.284 23.0133 176.604 22.8C176.924 22.5733 177.184 22.1933 177.384 21.66C177.451 21.5267 177.518 21.4267 177.584 21.36C177.664 21.2933 177.771 21.26 177.904 21.26H179.664C179.798 21.26 179.911 21.3067 180.004 21.4C180.111 21.48 180.158 21.5933 180.144 21.74C180.131 21.98 180.064 22.2533 179.944 22.56C179.838 22.8533 179.658 23.16 179.404 23.48C179.164 23.7867 178.858 24.0733 178.484 24.34C178.111 24.5933 177.658 24.8 177.124 24.96C176.604 25.12 175.998 25.2 175.304 25.2Z" fill="#333333"/>
<path fill-rule="evenodd" clip-rule="evenodd" d="M36.0218 20.132L11.8079 34.8889C13.76 35.6075 15.8708 36 18.0736 36C27.3311 36 34.9629 29.0683 36.0218 20.132ZM8 32.947C3.17469 29.7151 0 24.2268 0 18C0 11.7732 3.17469 6.28493 8 3.05296V32.947ZM10.8156 1.51023C13.037 0.539024 15.4921 0 18.0736 0C27.6944 0 35.5595 7.48655 36.1158 16.9292L10.8156 1.51023Z" fill="#E5261E"/>
</svg>
